<?xml version="1.0" encoding="utf-8"?>
<!-- Generator: Adobe Illustrator 22.1.0, SVG Export Plug-In . SVG Version: 6.00 Build 0)  -->
<svg version="1.1" id="Layer_1" xmlns="http://www.w3.org/2000/svg" xmlns:xlink="http://www.w3.org/1999/xlink" x="0px" y="0px"
	 viewBox="0 0 928.3 198.8" style="enable-background:new 0 0 928.3 198.8;" xml:space="preserve">
<style type="text/css">
	.st0{fill:#DC0C23;}
</style>
<polygon points="223.8,167.2 212.4,167.2 201.1,167.2 201.1,96 201.1,31.6 212.4,31.6 223.8,31.6 223.8,96 "/>
<polygon points="252.6,95.9 296.1,31.6 269.8,31.6 225.5,95.9 275.8,167.2 304.2,167.2 "/>
<path d="M860.7,108.4h44.9v38.2h-44.9V108.4z M853.8,167.2h74.5V47.4c0-8.7-7.1-15.8-15.8-15.8h-71.6v20.6h64.8v35.6h-51.8
	c-8.7,0-15.8,7.1-15.8,15.8v47.8C838,160.1,845.1,167.2,853.8,167.2"/>
<path d="M804.1,31.6c8.7,0,15.8,7.1,15.8,15.8V92c0,8.7-7.1,15.8-15.8,15.8h-9.2l32.9,59.4H803l-44-79.4h38.2V52.2h-45.8v115h-22.7
	V31.6H804.1z"/>
<path d="M627.8,47.4c0-8.7,7.1-15.8,15.8-15.8h65.9v20.6h-59v35.6h57v20.6h-57v38.2h59v20.6h-65.9c-8.7,0-15.8-7.1-15.8-15.8V47.4z"
	/>
<path d="M530,47.4c0-8.7,7.1-15.8,15.8-15.8h65v20.6h-58.1v94.4h58.1v20.6h-65c-8.7,0-15.8-7.1-15.8-15.8V47.4z"/>
<path d="M439.1,146.6h48.4V52.2h-48.4V146.6z M416.4,47.4c0-8.7,7.1-15.8,15.8-15.8h62.1c8.7,0,15.8,7.1,15.8,15.8v104
	c0,8.7-7.1,15.8-15.8,15.8h-62.1c-8.7,0-15.8-7.1-15.8-15.8V47.4z"/>
<path d="M308.1,94.3V31.6h22.7v58H374v-58h22.7v119.8c0,8.7-7.1,15.8-15.8,15.8l-67.2,0v-20.6c0,0,58,0,60.4,0v-36.4h-50
	C315.2,110.2,308.1,103.1,308.1,94.3"/>
<path class="st0" d="M160.4,0h-61L61,38.4l0,0v0l0,0H0v61v0v61h61l38.4,38.4h61v-61l-38.4-38.4L160.4,61V0z M122.1,99.4v61H61
	l-61-61l61-61v122.1L122.1,99.4l-61-61h61V99.4L122.1,99.4z"/>
</svg>
