<svg version="1.1" id="Layer_1" xmlns="http://www.w3.org/2000/svg" xmlns:xlink="http://www.w3.org/1999/xlink" x="0px" y="0px"
	 width="100%" viewBox="0 0 336 290" enable-background="new 0 0 336 290" xml:space="preserve">
<path fill="#FEFFFF" opacity="1.000000" stroke="none" 
	d="
M198.000000,291.000000 
	C132.000031,291.000000 66.500061,291.000000 1.000070,291.000000 
	C1.000047,194.333405 1.000047,97.666824 1.000023,1.000174 
	C112.999870,1.000116 224.999741,1.000116 336.999695,1.000058 
	C336.999817,97.666496 336.999817,194.332993 336.999908,290.999756 
	C290.833344,291.000000 244.666672,291.000000 198.000000,291.000000 
M99.461388,32.963276 
	C47.570526,63.662941 22.583410,119.162926 33.911297,178.559479 
	C48.279163,253.895828 127.592422,303.121124 201.661041,282.672302 
	C277.016144,261.868317 319.038971,186.399246 297.069794,111.327171 
	C272.916321,28.791109 174.309479,-10.603118 99.461388,32.963276 
z"/>
<path fill="#102A43" opacity="1.000000" stroke="none" 
	d="
M99.795105,32.805477 
	C174.309479,-10.603118 272.916321,28.791109 297.069794,111.327171 
	C319.038971,186.399246 277.016144,261.868317 201.661041,282.672302 
	C127.592422,303.121124 48.279163,253.895828 33.911297,178.559479 
	C22.583410,119.162926 47.570526,63.662941 99.795105,32.805477 
M191.480225,113.969986 
	C187.546158,113.969986 183.612091,113.969986 179.103912,113.969986 
	C179.103912,105.720642 179.103912,98.061089 179.103912,89.474556 
	C171.535782,97.059784 164.629425,103.758408 158.012558,110.731735 
	C155.618057,113.255226 153.164719,114.201988 149.746948,114.042976 
	C144.012314,113.776169 138.256226,113.969986 132.504822,113.969986 
	C129.130417,139.050598 129.020386,163.354355 132.517548,187.738556 
	C155.709717,187.738556 178.576736,187.738556 201.633774,187.738556 
	C204.865097,162.970596 205.101593,138.554810 201.456985,113.969986 
	C198.105576,113.969986 195.282135,113.969986 191.480225,113.969986 
M57.797245,171.715622 
	C58.483093,174.786392 59.428471,177.826324 59.797863,180.934692 
	C60.457737,186.487427 62.900753,189.022888 68.860390,188.179108 
	C72.937096,187.601913 77.161583,188.068588 81.320007,188.068588 
	C89.927773,188.068588 98.535545,188.068588 106.977448,188.068588 
	C106.337868,175.440674 105.245247,163.342377 105.246361,151.244171 
	C105.247498,138.972122 106.328773,126.700172 106.947960,114.206482 
	C92.209007,114.206482 77.156754,114.206482 61.967937,114.206482 
	C55.589687,132.852661 54.173386,151.675110 57.797245,171.715622 
M228.283310,167.858292 
	C227.797791,174.451447 227.312256,181.044601 226.810333,187.860382 
	C241.997009,187.860382 256.924896,187.860382 272.075317,187.860382 
	C279.849121,165.190414 280.119110,142.489029 273.959442,119.520172 
	C272.766449,115.071503 270.729462,113.558792 266.056763,113.841362 
	C258.255432,114.313126 250.404800,113.970131 242.574936,113.970131 
	C237.302567,113.970131 232.030212,113.970123 227.787445,113.970123 
	C227.982437,132.013153 228.171097,149.470627 228.283310,167.858292 
M184.706284,244.089539 
	C189.682648,234.253586 193.907654,224.152985 196.183975,213.244720 
	C176.415070,213.244720 157.231796,213.244720 137.020233,213.244720 
	C140.265839,221.879044 142.644485,230.228287 146.485611,237.839447 
	C150.102966,245.007172 154.731964,251.840866 159.894073,258.001984 
	C164.888092,263.962463 168.812027,263.767883 174.097061,258.126556 
	C177.917618,254.048401 180.920471,249.204163 184.706284,244.089539 
M138.594559,85.338127 
	C138.358749,86.453209 138.122940,87.568283 137.821686,88.992767 
	C157.397720,88.992767 176.682327,88.992767 195.992264,88.992767 
	C194.920319,78.549904 185.736053,57.663193 178.110046,48.136925 
	C169.469742,37.343666 164.450821,37.289867 155.900848,48.172905 
	C147.428009,58.957745 142.646851,71.523613 138.594559,85.338127 
M235.511276,212.926773 
	C231.056396,212.926773 226.601517,212.926773 222.987686,212.926773 
	C217.944458,227.105560 213.140549,240.611572 208.286057,254.259766 
	C229.205414,246.141403 245.977768,232.271255 259.544006,212.926773 
	C251.164856,212.926773 243.835754,212.926773 235.511276,212.926773 
M103.932220,59.414627 
	C92.486794,67.285263 82.927582,76.993309 74.674400,88.905151 
	C87.480690,88.905151 99.550873,88.905151 111.190651,88.905151 
	C116.047775,75.125443 120.833504,61.548294 126.015678,46.846409 
	C118.326332,51.191181 111.421692,55.092567 103.932220,59.414627 
M105.656235,243.890808 
	C112.250504,247.497101 118.844772,251.103394 125.938744,254.982956 
	C120.794121,240.387711 116.031624,226.876541 111.254990,213.325256 
	C99.529320,213.325256 87.369217,213.325256 74.246094,213.325256 
	C78.703583,218.589859 82.209198,223.510056 86.499931,227.608215 
	C92.377243,233.221756 98.850739,238.211105 105.656235,243.890808 
M217.936249,73.688698 
	C219.355087,78.770027 220.773926,83.851357 222.180725,88.889526 
	C234.534302,88.889526 246.598892,88.889526 259.413361,88.889526 
	C245.979218,69.913727 229.426437,56.059921 207.929626,47.698372 
	C211.357193,56.571945 214.517319,64.753174 217.936249,73.688698 
z"/>
<path fill="#FEFEFE" opacity="1.000000" stroke="none" 
	d="
M191.969452,113.969986 
	C195.282135,113.969986 198.105576,113.969986 201.456985,113.969986 
	C205.101593,138.554810 204.865097,162.970596 201.633774,187.738556 
	C178.576736,187.738556 155.709717,187.738556 132.517548,187.738556 
	C129.020386,163.354355 129.130417,139.050598 132.504822,113.969986 
	C138.256226,113.969986 144.012314,113.776169 149.746948,114.042976 
	C153.164719,114.201988 155.618057,113.255226 158.012558,110.731735 
	C164.629425,103.758408 171.535782,97.059784 179.103912,89.474556 
	C179.103912,98.061089 179.103912,105.720642 179.103912,113.969986 
	C183.612091,113.969986 187.546158,113.969986 191.969452,113.969986 
z"/>
<path fill="#FEFEFE" opacity="1.000000" stroke="none" 
	d="
M57.680523,171.299927 
	C54.173386,151.675110 55.589687,132.852661 61.967937,114.206482 
	C77.156754,114.206482 92.209007,114.206482 106.947960,114.206482 
	C106.328773,126.700172 105.247498,138.972122 105.246361,151.244171 
	C105.245247,163.342377 106.337868,175.440674 106.977448,188.068588 
	C98.535545,188.068588 89.927773,188.068588 81.320007,188.068588 
	C77.161583,188.068588 72.937096,187.601913 68.860390,188.179108 
	C62.900753,189.022888 60.457737,186.487427 59.797863,180.934692 
	C59.428471,177.826324 58.483093,174.786392 57.680523,171.299927 
z"/>
<path fill="#FEFEFE" opacity="1.000000" stroke="none" 
	d="
M228.321533,167.393188 
	C228.171097,149.470627 227.982437,132.013153 227.787445,113.970123 
	C232.030212,113.970123 237.302567,113.970131 242.574936,113.970131 
	C250.404800,113.970131 258.255432,114.313126 266.056763,113.841362 
	C270.729462,113.558792 272.766449,115.071503 273.959442,119.520172 
	C280.119110,142.489029 279.849121,165.190414 272.075317,187.860382 
	C256.924896,187.860382 241.997009,187.860382 226.810333,187.860382 
	C227.312256,181.044601 227.797791,174.451447 228.321533,167.393188 
z"/>
<path fill="#FDFEFE" opacity="1.000000" stroke="none" 
	d="
M184.497131,244.395554 
	C180.920471,249.204163 177.917618,254.048401 174.097061,258.126556 
	C168.812027,263.767883 164.888092,263.962463 159.894073,258.001984 
	C154.731964,251.840866 150.102966,245.007172 146.485611,237.839447 
	C142.644485,230.228287 140.265839,221.879044 137.020233,213.244720 
	C157.231796,213.244720 176.415070,213.244720 196.183975,213.244720 
	C193.907654,224.152985 189.682648,234.253586 184.497131,244.395554 
z"/>
<path fill="#FDFEFE" opacity="1.000000" stroke="none" 
	d="
M138.729156,84.935379 
	C142.646851,71.523613 147.428009,58.957745 155.900848,48.172905 
	C164.450821,37.289867 169.469742,37.343666 178.110046,48.136925 
	C185.736053,57.663193 194.920319,78.549904 195.992264,88.992767 
	C176.682327,88.992767 157.397720,88.992767 137.821686,88.992767 
	C138.122940,87.568283 138.358749,86.453209 138.729156,84.935379 
z"/>
<path fill="#FCFCFD" opacity="1.000000" stroke="none" 
	d="
M236.008972,212.926773 
	C243.835754,212.926773 251.164856,212.926773 259.544006,212.926773 
	C245.977768,232.271255 229.205414,246.141403 208.286057,254.259766 
	C213.140549,240.611572 217.944458,227.105560 222.987686,212.926773 
	C226.601517,212.926773 231.056396,212.926773 236.008972,212.926773 
z"/>
<path fill="#FCFCFC" opacity="1.000000" stroke="none" 
	d="
M104.224632,59.204292 
	C111.421692,55.092567 118.326332,51.191181 126.015678,46.846409 
	C120.833504,61.548294 116.047775,75.125443 111.190651,88.905151 
	C99.550873,88.905151 87.480690,88.905151 74.674400,88.905151 
	C82.927582,76.993309 92.486794,67.285263 104.224632,59.204292 
z"/>
<path fill="#FCFCFD" opacity="1.000000" stroke="none" 
	d="
M105.362473,243.679398 
	C98.850739,238.211105 92.377243,233.221756 86.499931,227.608215 
	C82.209198,223.510056 78.703583,218.589859 74.246094,213.325256 
	C87.369217,213.325256 99.529320,213.325256 111.254990,213.325256 
	C116.031624,226.876541 120.794121,240.387711 125.938744,254.982956 
	C118.844772,251.103394 112.250504,247.497101 105.362473,243.679398 
z"/>
<path fill="#FCFCFC" opacity="1.000000" stroke="none" 
	d="
M217.806854,73.311546 
	C214.517319,64.753174 211.357193,56.571945 207.929626,47.698372 
	C229.426437,56.059921 245.979218,69.913727 259.413361,88.889526 
	C246.598892,88.889526 234.534302,88.889526 222.180725,88.889526 
	C220.773926,83.851357 219.355087,78.770027 217.806854,73.311546 
z"/>
</svg>