<?xml version="1.0" standalone="no"?>
<!DOCTYPE svg PUBLIC "-//W3C//DTD SVG 20010904//EN"
 "http://www.w3.org/TR/2001/REC-SVG-20010904/DTD/svg10.dtd">
<svg version="1.0" xmlns="http://www.w3.org/2000/svg"
 width="283.000000pt" height="311.000000pt" viewBox="0 0 283.000000 311.000000"
 preserveAspectRatio="xMidYMid meet">

<g transform="translate(0.000000,311.000000) scale(0.100000,-0.100000)"
fill="#000000" stroke="none">
<path d="M1285 2744 c-102 -20 -133 -29 -188 -51 -261 -106 -432 -366 -413
-628 22 -299 235 -532 546 -599 61 -14 47 -14 -240 -15 l-305 -1 -232 -217
-233 -218 0 -432 0 -433 230 0 230 0 0 435 0 435 695 0 695 0 0 -435 0 -435
230 0 230 0 0 433 0 433 -232 217 -232 217 -311 1 c-219 1 -294 4 -256 10 147
25 270 89 382 199 88 88 150 199 174 315 75 357 -181 702 -566 764 -62 11
-164 13 -204 5z m159 -438 c67 -20 110 -57 142 -121 22 -45 25 -64 21 -100
-14 -101 -81 -173 -182 -196 -190 -42 -347 152 -252 313 31 53 71 85 130 104
55 17 84 17 141 0z"/>
</g>
</svg>
